<svg width="412" height="126" viewBox="0 0 412 126" fill="none" xmlns="http://www.w3.org/2000/svg">
<path d="M13.5458 54.4029L0 46.2125L72.1392 4V75.5092L56.3883 66.6886V29.8315L13.5458 54.4029Z" fill="#1766C3"/>
<path d="M72.4542 74.8792L86 83.0697L13.8608 125.282V53.7729L29.6117 62.5935V99.4506L72.4542 74.8792Z" fill="#1766C3"/>
<path d="M120 91C114.6 91 110.467 89.4667 107.6 86.4C104.733 83.3333 103.3 79 103.3 73.4V36.6C103.3 31 104.733 26.6667 107.6 23.6C110.467 20.5333 114.6 19 120 19C125.4 19 129.533 20.5333 132.4 23.6C135.267 26.6667 136.7 31 136.7 36.6V73.4C136.7 79 135.267 83.3333 132.4 86.4C129.533 89.4667 125.4 91 120 91ZM120 81C123.8 81 125.7 78.7 125.7 74.1V35.9C125.7 31.3 123.8 29 120 29C116.2 29 114.3 31.3 114.3 35.9V74.1C114.3 78.7 116.2 81 120 81ZM144.139 20H157.939L168.639 61.9H168.839V20H178.639V90H167.339L154.139 38.9H153.939V90H144.139V20ZM186.815 20H216.815V30H197.815V48.5H212.915V58.5H197.815V80H216.815V90H186.815V20ZM237.638 91C232.305 91 228.272 89.5 225.538 86.5C222.805 83.4333 221.438 79.0667 221.438 73.4V69.4H231.838V74.2C231.838 78.7333 233.738 81 237.538 81C239.405 81 240.805 80.4667 241.738 79.4C242.738 78.2667 243.238 76.4667 243.238 74C243.238 71.0667 242.572 68.5 241.238 66.3C239.905 64.0333 237.438 61.3333 233.838 58.2C229.305 54.2 226.138 50.6 224.338 47.4C222.538 44.1333 221.638 40.4667 221.638 36.4C221.638 30.8667 223.038 26.6 225.838 23.6C228.638 20.5333 232.705 19 238.038 19C243.305 19 247.272 20.5333 249.938 23.6C252.672 26.6 254.038 30.9333 254.038 36.6V39.5H243.638V35.9C243.638 33.5 243.172 31.7667 242.238 30.7C241.305 29.5667 239.938 29 238.138 29C234.472 29 232.638 31.2333 232.638 35.7C232.638 38.2333 233.305 40.6 234.638 42.8C236.038 45 238.538 47.6667 242.138 50.8C246.738 54.8 249.905 58.4333 251.638 61.7C253.372 64.9667 254.238 68.8 254.238 73.2C254.238 78.9333 252.805 83.3333 249.938 86.4C247.138 89.4667 243.038 91 237.638 91ZM260.545 20H276.745C282.212 20 286.312 21.4667 289.045 24.4C291.779 27.3333 293.145 31.6333 293.145 37.3V44.2C293.145 49.8667 291.779 54.1667 289.045 57.1C286.312 60.0333 282.212 61.5 276.745 61.5H271.545V90H260.545V20ZM276.745 51.5C278.545 51.5 279.879 51 280.745 50C281.679 49 282.145 47.3 282.145 44.9V36.6C282.145 34.2 281.679 32.5 280.745 31.5C279.879 30.5 278.545 30 276.745 30H271.545V51.5H276.745ZM315.02 91C309.62 91 305.486 89.4667 302.62 86.4C299.753 83.3333 298.32 79 298.32 73.4V36.6C298.32 31 299.753 26.6667 302.62 23.6C305.486 20.5333 309.62 19 315.02 19C320.42 19 324.553 20.5333 327.42 23.6C330.286 26.6667 331.72 31 331.72 36.6V73.4C331.72 79 330.286 83.3333 327.42 86.4C324.553 89.4667 320.42 91 315.02 91ZM315.02 81C318.82 81 320.72 78.7 320.72 74.1V35.9C320.72 31.3 318.82 29 315.02 29C311.22 29 309.32 31.3 309.32 35.9V74.1C309.32 78.7 311.22 81 315.02 81ZM339.159 20H355.459C361.125 20 365.259 21.3333 367.859 24C370.459 26.6 371.759 30.6333 371.759 36.1V40.4C371.759 47.6667 369.359 52.2667 364.559 54.2V54.4C367.225 55.2 369.092 56.8333 370.159 59.3C371.292 61.7667 371.859 65.0667 371.859 69.2V81.5C371.859 83.5 371.925 85.1333 372.059 86.4C372.192 87.6 372.525 88.8 373.059 90H361.859C361.459 88.8667 361.192 87.8 361.059 86.8C360.925 85.8 360.859 84 360.859 81.4V68.6C360.859 65.4 360.325 63.1667 359.259 61.9C358.259 60.6333 356.492 60 353.959 60H350.159V90H339.159V20ZM354.159 50C356.359 50 357.992 49.4333 359.059 48.3C360.192 47.1667 360.759 45.2667 360.759 42.6V37.2C360.759 34.6667 360.292 32.8333 359.359 31.7C358.492 30.5667 357.092 30 355.159 30H350.159V50H354.159ZM387.895 30H376.395V20H410.395V30H398.895V90H387.895V30Z" fill="#212325"/>
</svg>
